<svg width="647.5" height="440" xmlns="http://www.w3.org/2000/svg" version="1.1" xml:space="preserve">
 <metadata id="metadata8">image/svg+xml</metadata>
 <defs id="defs6">
  <clipPath clipPathUnits="userSpaceOnUse" id="clipPath20">
   <path d="m-398.38446,988.40579l1280,0l0,-769l-1280,0l0,769z" id="path18"/>
  </clipPath>
 </defs>
 <g>
  <title>Layer 1</title>
  <g transform="matrix(1.33333 0 0 -1.33333 0 1025.33)" id="g14">
   <g id="g16" clip-path="url(#clipPath20)">
    <g id="g22">
     <path fill-rule="nonzero" fill="#000" d="m38.02374,477.17438c1.936,2.178 2.905,5.358 2.905,9.543c0,4.184 -1.263,7.157 -3.786,8.921c-2.526,1.763 -6.45,2.644 -11.774,2.644l-9.232,0l0,-24.376l10.892,0c5.393,0 9.058,1.089 10.995,3.268m11.877,28.525c5.083,-4.322 7.624,-10.962 7.624,-19.916c0,-8.956 -2.611,-15.507 -7.832,-19.656c-5.222,-4.149 -13.19,-6.224 -23.909,-6.224l-9.647,0l0,-20.227l-16.181,0l0,72.506l25.621,0c11.133,0 19.241,-2.162 24.324,-6.483" id="path24"/>
    </g>
    <g id="g26">
     <path fill-rule="nonzero" fill="#000" d="m70.17804,439.67629l0,72.506l16.182,0l0,-58.088l30.911,0l0,-14.418l-47.093,0z" id="path28"/>
    </g>
    <g id="g30">
     <path fill-rule="nonzero" fill="#000" d="m158.86554,490.607l-9.128,-21.057l18.152,0l-9.024,21.057zm21.887,-50.931l-6.742,15.663l-30.393,0l-6.742,-15.663l-17.219,0l31.326,72.506l15.663,0l31.325,-72.506l-17.218,0z" id="path32"/>
    </g>
    <g id="g34">
     <path fill-rule="nonzero" fill="#000" d="m257.09503,512.18219l16.183,0l0,-72.506l-16.183,0l-34.541,45.433l0,-45.433l-16.182,0l0,72.506l15.144,0l35.579,-46.678l0,46.678z" id="path36"/>
    </g>
    <path fill-rule="nonzero" fill="#000" d="m291.11754,512.18179l16.182,0l0,-72.506l-16.182,0l0,72.506z" id="path38"/>
    <g id="g40">
     <path fill-rule="nonzero" fill="#000" d="m374.92804,512.18219l0,-14.211l-33.607,0l0,-15.662l31.948,0l0,-14.211l-31.948,0l0,-28.422l-16.182,0l0,72.506l49.789,0z" id="path42"/>
    </g>
    <path fill-rule="nonzero" fill="#000" d="m388.62054,512.18179l16.182,0l0,-72.506l-16.182,0l0,72.506z" id="path44"/>
    <g id="g46">
     <path fill-rule="nonzero" fill="#000" d="m463.40753,512.18219l19.501,0l-22.612,-34.956l24.479,-37.55l-19.708,0l-15.456,23.858l-15.351,-23.858l-19.501,0l24.376,37.135l-22.716,35.371l19.396,0l13.796,-21.472l13.796,21.472z" id="path48"/>
    </g>
    <g id="g50">
     <path fill-rule="nonzero" fill="#000" d="m238.78205,643.00928l-12.076,-28.89l-4.777,-11.464l-2.025,-4.816l-11.465,-27.476l-15.705,-37.565l-41.426,0l59.501,142.426l27.973,-32.215z" id="path52"/>
    </g>
    <g id="g54">
     <path fill-rule="nonzero" fill="#000" d="m330.37433,583.82669c-5.427,-11.962 -16.968,-19.375 -30.113,-19.375l-80.366,0l0,38.215l69.13,0l-93.98,106.924l0,58.545l130.208,-148.846c8.599,-9.936 10.586,-23.502 5.121,-35.463" id="path56"/>
    </g>
   </g>
  </g>
 </g>
</svg>